General
Complete name                    : Vozvrashcheniye aka The Return.mkv
Format                           : Matroska
File size                        : 1.67 GiB
Duration                         : 1h 45mn
Overall bit rate                 : 2 256 Kbps


Video
ID                               : 1
Format                           : AVC

Codec ID                         : V_MPEG4/ISO/AVC
Duration                         : 1h 45mn
Bit rate                         : 2 083 Kbps
Nominal bit rate                 : 2 114 Kbps
Width                            : 720 pixels
Height                           : 576 pixels
Display aspect ratio             : 16:9
Frame rate                       : 25.000 fps
Standard                         : PAL
Resolution                       : 8 bits
Colorimetry                      : 4:2:0
Scan type                        : Progressive
Bits/(Pixel*Frame)               : 0.201
Stream size                      : 1.54 GiB (92%)
Writing library                  : x264 core 79


Audio
ID                               : 2
Format                           : AC-3
Format/Info                      : Audio Coding 3
Codec ID                         : A_AC3
Duration                         : 1h 45mn
Bit rate mode                    : Constant
Bit rate                         : 128 Kbps
Channel(s)                       : 2 channels
Channel positions                : L R
Sampling rate                    : 48.0 KHz
Stream size                      : 96.9 MiB (6%)
Language                         : Russia



Text #1
Language                         : Swedish

Text #2
Language                         : Norwegian

Text #3
Language                         : Danish

Text #4
Language                         : Finnish

Text #5
Language                         : English


